# xmcd
#
# Track frame offsets:
#  150
#  17087
#  29420
#  43857
#  62024
#  79520
#  93350
#  106276
#  125714
#  146542
#  158437
#  175047
#  190003
#  200799
#  229019
#
# Disc length: 3277 seconds
#
# Revision: 0
# Processed by: cddbd v1.5.1PL2 Copyright (c) Steve Scherf et al.
# Submitted via: Collectorz.com_Music_Collector 6.11
#
DISCID=c00ccb0f
DTITLE=Hollywood Blue Flames - Road To Rio [CD1)
DYEAR=2006
DGENRE=Blues -  Blues Swing -  Blues West Coast Style
TTITLE0=Road To Rio
TTITLE1=Everybody's Blues
TTITLE2=Coffee Grindin' Man
TTITLE3=Steady Rollin'
TTITLE4=Long Black Cadillac
TTITLE5=Gumbo Grinder
TTITLE6=Hollywood Blue Flames, - Gone Away
TTITLE7=3rd Degree Burn
TTITLE8=Let's Rock A While
TTITLE9=Dr. Blake's Boogie
TTITLE10=Black Chili Pepper
TTITLE11=Sharpest Man In Town
TTITLE12=The Hollywood Blue Flames - Junior Watson - Junior's Boogie Rocket
TTITLE13=The Hollywood Blue Flames - Junior Watson - Let Me Love You
TTITLE14=The Hollywood Blue Flames - Junior Watson - Honeydripper
EXTD=
EXTT0=
EXTT1=
EXTT2=
EXTT3=
EXTT4=
EXTT5=
EXTT6=
EXTT7=
EXTT8=
EXTT9=
EXTT10=
EXTT11=
EXTT12=
EXTT13=
EXTT14=
PLAYORDER=
